<svg width="68" height="68" viewBox="0 0 68 68" fill="none" xmlns="http://www.w3.org/2000/svg">
<circle cx="34" cy="34" r="34" fill="#D9D9D9"/>
<path d="M38.0833 23.3332C39.7112 23.6508 41.2073 24.4469 42.3801 25.6197C43.5529 26.7925 44.3491 28.2886 44.6667 29.9165M38.0833 16.6665C41.4655 17.0422 44.6193 18.5568 47.0271 20.9615C49.4348 23.3662 50.9533 26.5182 51.3333 29.8998M49.6667 43.1998V48.1998C49.6686 48.664 49.5735 49.1235 49.3875 49.5487C49.2016 49.974 48.9288 50.3558 48.5868 50.6696C48.2448 50.9834 47.841 51.2223 47.4012 51.371C46.9615 51.5197 46.4956 51.5749 46.0333 51.5332C40.9047 50.9759 35.9783 49.2234 31.65 46.4165C27.623 43.8576 24.2089 40.4435 21.65 36.4165C18.8333 32.0685 17.0804 27.1182 16.5333 21.9665C16.4917 21.5056 16.5465 21.0411 16.6942 20.6025C16.8419 20.164 17.0793 19.761 17.3913 19.4192C17.7033 19.0774 18.083 18.8044 18.5063 18.6174C18.9296 18.4304 19.3872 18.3336 19.85 18.3332H24.85C25.6588 18.3252 26.443 18.6116 27.0563 19.1391C27.6696 19.6665 28.0701 20.3989 28.1833 21.1998C28.3944 22.7999 28.7858 24.371 29.35 25.8832C29.5742 26.4797 29.6228 27.128 29.4898 27.7513C29.3569 28.3746 29.0481 28.9467 28.6 29.3998L26.4833 31.5165C28.8559 35.6891 32.3108 39.1439 36.4833 41.5165L38.6 39.3998C39.0531 38.9517 39.6253 38.6429 40.2485 38.51C40.8718 38.3771 41.5201 38.4256 42.1167 38.6498C43.6288 39.2141 45.1999 39.6055 46.8 39.8165C47.6096 39.9307 48.349 40.3385 48.8776 40.9623C49.4061 41.5861 49.6869 42.3825 49.6667 43.1998Z" stroke="black" stroke-width="2" stroke-linecap="round" stroke-linejoin="round"/>
</svg>
