<svg width="25" height="25" viewBox="0 0 25 25" fill="none" xmlns="http://www.w3.org/2000/svg">
<g clip-path="url(#clip0_21_104)">
<path fill-rule="evenodd" clip-rule="evenodd" d="M12.4961 4.0092L14.7116 8.49481C14.9708 9.0203 15.3481 9.47868 15.8139 9.83411C16.271 10.1789 16.7993 10.4173 17.3602 10.5317L20.7897 11.2259L18.2402 13.1611C17.6858 13.5781 17.2579 14.1407 17.004 14.7862C16.7501 15.4318 16.6801 16.1351 16.8018 16.818L17.6247 21.3965L14.3601 19.5603C13.7904 19.2406 13.1481 19.0726 12.4948 19.0726C11.8415 19.0726 11.1992 19.2406 10.6295 19.5603L7.36746 21.3948L8.18953 16.8205C8.31241 16.1388 8.24398 15.4364 7.99183 14.7912C7.73968 14.1461 7.31367 13.5834 6.76111 13.1657L4.20328 11.2242L7.62942 10.5304C8.19652 10.4172 8.73007 10.1753 9.18898 9.82339C9.64788 9.47148 10.0199 9.01895 10.2764 8.50063L12.4961 4.00754M12.4961 0.00710202C12.2548 0.00569595 12.0181 0.0719053 11.8125 0.198215C11.607 0.324525 11.441 0.505883 11.3333 0.721734L8.03753 7.39246C7.95117 7.56821 7.82497 7.72136 7.66897 7.83972C7.51178 7.95917 7.32952 8.04134 7.13592 8.08002L1.03325 9.31563C0.793736 9.36261 0.572671 9.47719 0.396217 9.64582C0.219762 9.81446 0.0953019 10.0301 0.0375153 10.2672C-0.0180819 10.5034 -0.00371082 10.7507 0.0788961 10.9788C0.161503 11.207 0.308772 11.4061 0.502693 11.552L5.25023 15.1572C5.43556 15.2959 5.57872 15.4833 5.66375 15.6986C5.74911 15.9124 5.77222 16.146 5.7304 16.3724L4.4494 23.5083C4.40709 23.7462 4.43469 23.9913 4.52886 24.2139C4.62303 24.4364 4.77972 24.6269 4.97995 24.7622C5.19767 24.912 5.45575 24.992 5.71998 24.9917C5.94587 24.9924 6.16817 24.9351 6.3655 24.8251L11.8518 21.7396C12.0483 21.6293 12.2699 21.5714 12.4952 21.5714C12.7206 21.5714 12.9422 21.6293 13.1387 21.7396L18.6283 24.8289C18.842 24.9485 19.0849 25.0062 19.3296 24.9954C19.5743 24.9846 19.8111 24.9057 20.0134 24.7676C20.2137 24.6324 20.3705 24.4419 20.4648 24.2194C20.559 23.9968 20.5867 23.7517 20.5444 23.5137L19.2605 16.3749C19.2194 16.1484 19.2427 15.9149 19.328 15.7011C19.413 15.4858 19.5562 15.2984 19.7415 15.1597L24.489 11.5545C24.683 11.4086 24.8302 11.2095 24.9128 10.9813C24.9954 10.7532 25.0098 10.5059 24.9542 10.2697C24.8963 10.0325 24.7717 9.81682 24.5951 9.64818C24.4185 9.47955 24.1973 9.36501 23.9577 9.31813L17.8541 8.08252C17.6605 8.04344 17.4782 7.96132 17.3207 7.84223C17.1649 7.72372 17.0389 7.57059 16.9525 7.39495L13.6584 0.724232C13.5506 0.508457 13.3846 0.327095 13.1793 0.200604C12.9739 0.0741132 12.7373 0.00752801 12.4961 0.00835386V0.00710202Z" fill="#BF873E"/>
</g>
<defs>
<clipPath id="clip0_21_104">
<rect width="25" height="25" fill="white"/>
</clipPath>
</defs>
</svg>
