<svg width="25" height="25" viewBox="0 0 25 25" fill="none" xmlns="http://www.w3.org/2000/svg">
<g clip-path="url(#clip0_21_67)">
<path fill-rule="evenodd" clip-rule="evenodd" d="M16.9583 7.39371C17.0447 7.56894 17.1707 7.72169 17.3263 7.83991C17.4839 7.95907 17.6662 8.04129 17.8599 8.0805L23.9627 9.31465C24.2023 9.36126 24.4236 9.47559 24.6002 9.64409C24.7768 9.81258 24.9014 10.0282 24.9592 10.2653C25.0146 10.5014 25.0002 10.7485 24.9175 10.9764C24.8349 11.2044 24.6877 11.4033 24.4939 11.549L19.7454 15.1511C19.5602 15.2898 19.417 15.4771 19.3317 15.6922C19.247 15.9061 19.2239 16.1394 19.2651 16.3657L20.5463 23.4967C20.5884 23.7344 20.5607 23.9794 20.4665 24.2017C20.3723 24.4241 20.2157 24.6144 20.0156 24.7495C19.8131 24.8874 19.5763 24.9661 19.3316 24.9768C19.0869 24.9876 18.8441 24.9299 18.6303 24.8103L13.1443 21.7272C12.9478 21.6172 12.7263 21.5595 12.501 21.5595C12.2758 21.5595 12.0543 21.6172 11.8578 21.7272L6.37133 24.8103C6.15779 24.9303 5.91496 24.9882 5.67025 24.9774C5.42555 24.9667 5.18874 24.8878 4.98653 24.7495C4.78639 24.6144 4.62973 24.4241 4.53554 24.2017C4.44134 23.9794 4.41365 23.7344 4.45581 23.4967L5.73699 16.3669C5.77818 16.1406 5.75509 15.9073 5.67038 15.6935C5.58509 15.4784 5.4419 15.2911 5.25666 15.1524L0.508223 11.5502C0.314403 11.4046 0.167179 11.2056 0.0845428 10.9776C0.00190683 10.7497 -0.012558 10.5026 0.0428785 10.2666C0.10072 10.0295 0.225277 9.81397 0.401801 9.64549C0.578326 9.47701 0.799428 9.36263 1.03893 9.31589L7.14095 8.08175C7.33457 8.04286 7.51687 7.9606 7.67415 7.84116C7.82972 7.72283 7.9558 7.57011 8.04253 7.39496L11.3383 0.729767C11.4473 0.515054 11.6137 0.334718 11.8189 0.208754C12.0241 0.082789 12.2602 0.0161133 12.501 0.0161133C12.7418 0.0161133 12.978 0.082789 13.1832 0.208754C13.3884 0.334718 13.5548 0.515054 13.6638 0.729767L16.9583 7.39371Z" fill="#BF873E"/>
</g>
<defs>
<clipPath id="clip0_21_67">
<rect width="25" height="25" fill="white"/>
</clipPath>
</defs>
</svg>
