<svg width="45" height="45" viewBox="0 0 45 45" fill="none" xmlns="http://www.w3.org/2000/svg">
<circle cx="22.5" cy="22.5" r="22.5" fill="white"/>
<path d="M28.125 11.25H16.875C13.7684 11.25 11.25 13.7684 11.25 16.875V28.125C11.25 31.2316 13.7684 33.75 16.875 33.75H28.125C31.2316 33.75 33.75 31.2316 33.75 28.125V16.875C33.75 13.7684 31.2316 11.25 28.125 11.25Z" stroke="black" stroke-width="2" stroke-linecap="round" stroke-linejoin="round"/>
<path d="M27 21.7912C27.1389 22.7275 26.979 23.6837 26.543 24.5239C26.1071 25.364 25.4173 26.0453 24.5719 26.4709C23.7264 26.8964 22.7683 27.0445 21.8338 26.8941C20.8993 26.7438 20.036 26.3026 19.3667 25.6333C18.6974 24.964 18.2562 24.1007 18.1059 23.1662C17.9555 22.2317 18.1036 21.2736 18.5292 20.4281C18.9547 19.5827 19.636 18.8929 20.4761 18.457C21.3163 18.0211 22.2725 17.8611 23.2088 18C24.1638 18.1416 25.048 18.5866 25.7307 19.2693C26.4134 19.952 26.8584 20.8362 27 21.7912Z" stroke="black" stroke-width="2" stroke-linecap="round" stroke-linejoin="round"/>
<path d="M28.6875 16.3125H28.6987" stroke="black" stroke-width="2" stroke-linecap="round" stroke-linejoin="round"/>
</svg>
