<svg width="57" height="57" viewBox="0 0 57 57" fill="none" xmlns="http://www.w3.org/2000/svg">
<circle cx="28.5" cy="28.5" r="28.5" fill="#D9D9D9"/>
<path d="M35.625 14.25H21.375C17.44 14.25 14.25 17.44 14.25 21.375V35.625C14.25 39.56 17.44 42.75 21.375 42.75H35.625C39.56 42.75 42.75 39.56 42.75 35.625V21.375C42.75 17.44 39.56 14.25 35.625 14.25Z" stroke="black" stroke-width="2" stroke-linecap="round" stroke-linejoin="round"/>
<path d="M34.2 27.6023C34.3759 28.7882 34.1733 29.9994 33.6212 31.0636C33.069 32.1278 32.1953 32.9908 31.1244 33.5298C30.0534 34.0688 28.8398 34.2564 27.6561 34.066C26.4724 33.8755 25.379 33.3166 24.5312 32.4689C23.6834 31.6211 23.1246 30.5276 22.9341 29.3439C22.7436 28.1602 22.9312 26.9466 23.4703 25.8757C24.0093 24.8048 24.8723 23.9311 25.9364 23.3789C27.0006 22.8267 28.2118 22.6241 29.3978 22.8C30.6075 22.9794 31.7275 23.5431 32.5922 24.4078C33.457 25.2726 34.0207 26.3925 34.2 27.6023Z" stroke="black" stroke-width="2" stroke-linecap="round" stroke-linejoin="round"/>
<path d="M36.3375 20.6625H36.3518" stroke="black" stroke-width="2" stroke-linecap="round" stroke-linejoin="round"/>
</svg>
