<svg width="45" height="45" viewBox="0 0 45 45" fill="none" xmlns="http://www.w3.org/2000/svg">
<circle cx="22.5" cy="22.5" r="22.5" fill="white"/>
<path d="M27 18C28.7902 18 30.5071 18.7112 31.773 19.977C33.0388 21.2429 33.75 22.9598 33.75 24.75V32.625H29.25V24.75C29.25 24.1533 29.0129 23.581 28.591 23.159C28.169 22.7371 27.5967 22.5 27 22.5C26.4033 22.5 25.831 22.7371 25.409 23.159C24.9871 23.581 24.75 24.1533 24.75 24.75V32.625H20.25V24.75C20.25 22.9598 20.9612 21.2429 22.227 19.977C23.4929 18.7112 25.2098 18 27 18Z" stroke="black" stroke-width="2" stroke-linecap="round" stroke-linejoin="round"/>
<path d="M15.75 19.125H11.25V32.625H15.75V19.125Z" stroke="black" stroke-width="2" stroke-linecap="round" stroke-linejoin="round"/>
<path d="M13.5 15.75C14.7426 15.75 15.75 14.7426 15.75 13.5C15.75 12.2574 14.7426 11.25 13.5 11.25C12.2574 11.25 11.25 12.2574 11.25 13.5C11.25 14.7426 12.2574 15.75 13.5 15.75Z" stroke="black" stroke-width="2" stroke-linecap="round" stroke-linejoin="round"/>
</svg>
