<svg width="68" height="68" viewBox="0 0 68 68" fill="none" xmlns="http://www.w3.org/2000/svg">
<circle cx="34" cy="34" r="34" fill="#D9D9D9"/>
<path d="M50.8786 30.8431C50.8786 43.5931 34.4858 54.5216 34.4858 54.5216C34.4858 54.5216 18.0929 43.5931 18.0929 30.8431C18.0929 26.4954 19.82 22.3258 22.8943 19.2516C25.9685 16.1773 30.1381 14.4502 34.4858 14.4502C38.8334 14.4502 43.003 16.1773 46.0773 19.2516C49.1515 22.3258 50.8786 26.4954 50.8786 30.8431Z" stroke="black" stroke-width="2" stroke-linecap="round" stroke-linejoin="round"/>
<path d="M34.4858 36.3072C37.5036 36.3072 39.9501 33.8608 39.9501 30.8429C39.9501 27.8251 37.5036 25.3787 34.4858 25.3787C31.4679 25.3787 29.0215 27.8251 29.0215 30.8429C29.0215 33.8608 31.4679 36.3072 34.4858 36.3072Z" stroke="black" stroke-width="2" stroke-linecap="round" stroke-linejoin="round"/>
</svg>
