<svg width="25" height="25" viewBox="0 0 25 25" fill="none" xmlns="http://www.w3.org/2000/svg">
<g clip-path="url(#clip0_21_146)">
<path fill-rule="evenodd" clip-rule="evenodd" d="M24.4903 11.5535L19.7427 15.1587C19.5574 15.2974 19.4142 15.4848 19.3292 15.7001C19.244 15.914 19.2206 16.1475 19.2617 16.3739L20.5436 23.5098C20.5858 23.7478 20.5582 23.9929 20.4639 24.2155C20.3697 24.4381 20.2129 24.6285 20.0126 24.7638C19.8102 24.9018 19.5734 24.9807 19.3287 24.9915C19.084 25.0023 18.8412 24.9447 18.6275 24.825L13.1411 21.7395C12.9446 21.6292 12.7231 21.5712 12.4977 21.5712C12.2724 21.5712 12.0508 21.6292 11.8543 21.7395L6.36672 24.8287C6.16939 24.9387 5.94709 24.996 5.7212 24.9953C5.45697 24.9956 5.19889 24.9156 4.98117 24.7659C4.78094 24.6306 4.62425 24.4401 4.53008 24.2175C4.43591 23.995 4.40831 23.7498 4.45062 23.5119L5.73162 16.376C5.77344 16.1496 5.75035 15.916 5.665 15.7022C5.57997 15.4869 5.43678 15.2995 5.25145 15.1608L0.503914 11.5556C0.309993 11.4098 0.162724 11.2106 0.0801168 10.9825C-0.00249011 10.7543 -0.0168612 10.507 0.038736 10.2708C0.0965226 10.0337 0.221008 9.81808 0.397463 9.64945C0.573917 9.48082 0.794957 9.36624 1.03447 9.31926L7.13715 8.08365C7.33074 8.04496 7.51303 7.96279 7.67022 7.84335C7.82621 7.72498 7.95239 7.57183 8.03875 7.39608L11.3346 0.725362C11.4435 0.510397 11.6098 0.32982 11.8151 0.203673C12.0205 0.0775254 12.2567 0.0107422 12.4977 0.0107422C12.7387 0.0107422 12.9749 0.0775254 13.1803 0.203673C13.3856 0.32982 13.5519 0.510397 13.6608 0.725362L16.955 7.39608C17.0413 7.57172 17.1674 7.72485 17.3231 7.84335C17.4807 7.96244 17.663 8.04457 17.8566 8.08365L23.9597 9.31926C24.1994 9.36607 24.4207 9.48057 24.5974 9.64921C24.7741 9.81785 24.8988 10.0336 24.9567 10.2708C25.0117 10.5069 24.9969 10.7538 24.9141 10.9815C24.8313 11.2092 24.684 11.408 24.4903 11.5535ZM17.3602 10.5315C16.7992 10.4172 16.2709 10.1789 15.8139 9.83399C15.3481 9.47856 14.9708 9.02018 14.7116 8.49468L12.5065 4.03032V19.0746C13.1555 19.0767 13.7934 19.2438 14.3601 19.5602L17.6246 21.3963L16.8017 16.8179C16.68 16.1349 16.75 15.4316 17.004 14.7861C17.2579 14.1405 17.6858 13.578 18.2402 13.161L20.7897 11.2258L17.3602 10.5315Z" fill="#BF873E"/>
</g>
<defs>
<clipPath id="clip0_21_146">
<rect width="25" height="25" fill="white"/>
</clipPath>
</defs>
</svg>
