<svg width="57" height="57" viewBox="0 0 57 57" fill="none" xmlns="http://www.w3.org/2000/svg">
<circle cx="28.5" cy="28.5" r="28.5" fill="#D9D9D9"/>
<path d="M44.175 15.675C42.8104 16.6376 41.2995 17.3738 39.7005 17.8553C38.8423 16.8685 37.7017 16.169 36.433 15.8516C35.1644 15.5342 33.8288 15.614 32.607 16.0804C31.3852 16.5467 30.336 17.377 29.6015 18.4591C28.867 19.5411 28.4825 20.8226 28.5 22.1303V23.5553C25.9958 23.6202 23.5143 23.0648 21.2767 21.9385C19.0391 20.8122 17.1147 19.1501 15.675 17.1C15.675 17.1 9.97501 29.925 22.8 35.625C19.8653 37.6171 16.3692 38.616 12.825 38.475C25.65 45.6 41.325 38.475 41.325 22.0875C41.3237 21.6906 41.2855 21.2946 41.211 20.9048C42.6654 19.4705 43.6917 17.6596 44.175 15.675Z" stroke="black" stroke-width="2" stroke-linecap="round" stroke-linejoin="round"/>
</svg>
